<?xml version="1.0" encoding="utf-8"?>
<!-- Uploaded to: SVG Repo, www.svgrepo.com, Generator: SVG Repo Mixer Tools -->
<svg fill="#000000" width="800px" height="800px" viewBox="0 0 32 32" version="1.1" xmlns="http://www.w3.org/2000/svg">
<title>user-check</title>
<path d="M13.5 16.324c3.757-0 6.802-3.046 6.802-6.802s-3.045-6.802-6.802-6.802-6.802 3.045-6.802 6.802c0 0 0 0 0 0.001v-0c0.005 3.755 3.048 6.798 6.802 6.802h0zM13.5 5.22c2.376 0 4.302 1.926 4.302 4.302s-1.926 4.302-4.302 4.302c-2.376 0-4.302-1.926-4.302-4.302v-0c0.003-2.375 1.928-4.3 4.302-4.303h0zM13.5 17.533c-6.195 0.026-11.372 4.351-12.705 10.144l-0.017 0.088c-0.018 0.080-0.029 0.172-0.029 0.266 0 0.596 0.417 1.094 0.975 1.219l0.008 0.002c0.081 0.019 0.174 0.029 0.269 0.029 0.596 0 1.094-0.418 1.218-0.976l0.002-0.008c1.074-4.761 5.267-8.264 10.279-8.264s9.206 3.504 10.266 8.195l0.013 0.070c0.127 0.566 0.625 0.982 1.221 0.982 0.69 0 1.25-0.559 1.25-1.25 0-0.095-0.011-0.187-0.031-0.276l0.002 0.008c-1.351-5.88-6.527-10.203-12.718-10.231h-0.003zM30.844 10.71c-0.221-0.204-0.518-0.329-0.844-0.329-0.365 0-0.693 0.156-0.921 0.406l-0.001 0.001-4.375 4.782-0.828-0.822c-0.226-0.223-0.536-0.361-0.878-0.361-0.69 0-1.25 0.56-1.25 1.25 0 0.345 0.14 0.658 0.366 0.884v0l1.752 1.74 0.022 0.015 0.015 0.021c0.075 0.061 0.16 0.114 0.251 0.157l0.008 0.003c0.036 0.026 0.078 0.052 0.121 0.075l0.007 0.003c0.109 0.059 0.238 0.094 0.375 0.094 0.086 0 0.169-0.014 0.247-0.039l-0.006 0.002c0.118-0.009 0.227-0.032 0.33-0.069l-0.009 0.003c0.064-0.036 0.12-0.074 0.172-0.115l-0.003 0.002c0.090-0.046 0.168-0.099 0.238-0.16l-0.002 0.001 0.013-0.019 0.023-0.016 5.254-5.743c0.203-0.221 0.328-0.518 0.328-0.844 0-0.365-0.156-0.693-0.406-0.921l-0.001-0.001z"></path>
</svg>